<svg xmlns="http://www.w3.org/2000/svg" xmlns:xlink="http://www.w3.org/1999/xlink" width="512" zoomAndPan="magnify" viewBox="0 0 384 383.999986" height="512" preserveAspectRatio="xMidYMid meet" version="1.0"><defs><g/></defs><rect x="-38.4" width="460.8" fill="#ffffff" y="-38.399999" height="460.799983" fill-opacity="1"/><rect x="-38.4" width="460.8" fill="#0e0e10" y="-38.399999" height="460.799983" fill-opacity="1"/><g fill="#f2f2f2" fill-opacity="1"><g transform="translate(101.340681, 293.646831)"><g><path d="M 88.953125 3.40625 C 73.222656 3.40625 58.015625 1.273438 43.328125 -2.984375 C 28.648438 -7.242188 16.859375 -12.785156 7.953125 -19.609375 L 23.59375 -54.28125 C 32.113281 -48.03125 42.242188 -43.007812 53.984375 -39.21875 C 65.734375 -35.425781 77.484375 -33.53125 89.234375 -33.53125 C 102.304688 -33.53125 111.96875 -35.472656 118.21875 -39.359375 C 124.46875 -43.242188 127.59375 -48.40625 127.59375 -54.84375 C 127.59375 -59.582031 125.742188 -63.515625 122.046875 -66.640625 C 118.359375 -69.765625 113.625 -72.273438 107.84375 -74.171875 C 102.070312 -76.066406 94.257812 -78.148438 84.40625 -80.421875 C 69.25 -84.023438 56.835938 -87.625 47.171875 -91.21875 C 37.515625 -94.820312 29.226562 -100.601562 22.3125 -108.5625 C 15.394531 -116.519531 11.9375 -127.128906 11.9375 -140.390625 C 11.9375 -151.941406 15.0625 -162.40625 21.3125 -171.78125 C 27.5625 -181.164062 36.984375 -188.601562 49.578125 -194.09375 C 62.179688 -199.59375 77.578125 -202.34375 95.765625 -202.34375 C 108.460938 -202.34375 120.875 -200.828125 133 -197.796875 C 145.125 -194.765625 155.734375 -190.40625 164.828125 -184.71875 L 150.625 -149.765625 C 132.238281 -160.179688 113.859375 -165.390625 95.484375 -165.390625 C 82.597656 -165.390625 73.078125 -163.304688 66.921875 -159.140625 C 60.765625 -154.972656 57.6875 -149.476562 57.6875 -142.65625 C 57.6875 -135.84375 61.238281 -130.773438 68.34375 -127.453125 C 75.445312 -124.140625 86.296875 -120.875 100.890625 -117.65625 C 116.046875 -114.050781 128.453125 -110.445312 138.109375 -106.84375 C 147.773438 -103.25 156.066406 -97.566406 162.984375 -89.796875 C 169.898438 -82.035156 173.359375 -71.523438 173.359375 -58.265625 C 173.359375 -46.890625 170.179688 -36.515625 163.828125 -27.140625 C 157.484375 -17.765625 147.960938 -10.328125 135.265625 -4.828125 C 122.578125 0.660156 107.140625 3.40625 88.953125 3.40625 Z M 88.953125 3.40625 "/></g></g></g></svg>