<svg xmlns="http://www.w3.org/2000/svg" xmlns:xlink="http://www.w3.org/1999/xlink" width="512" zoomAndPan="magnify" viewBox="0 0 384 383.999986" height="512" preserveAspectRatio="xMidYMid meet" version="1.0"><defs><g/></defs><rect x="-38.4" width="460.8" fill="#ffffff" y="-38.399999" height="460.799983" fill-opacity="1"/><rect x="-38.4" width="460.8" fill="#0e0e10" y="-38.399999" height="460.799983" fill-opacity="1"/><g fill="#f2f2f2" fill-opacity="1"><g transform="translate(106.581217, 302.249974)"><g><path d="M 82.859375 3 C 65.835938 3 51.273438 0.0976562 39.171875 -5.703125 C 27.066406 -11.503906 16.109375 -20.207031 6.296875 -31.8125 L 33.328125 -58.84375 C 39.523438 -50.632812 46.722656 -44.273438 54.921875 -39.765625 C 63.128906 -35.265625 73.140625 -33.015625 84.953125 -33.015625 C 95.554688 -33.015625 104.007812 -35.113281 110.3125 -39.3125 C 116.625 -43.519531 119.78125 -49.328125 119.78125 -56.734375 C 119.78125 -63.140625 117.976562 -68.34375 114.375 -72.34375 C 110.769531 -76.34375 106.015625 -79.742188 100.109375 -82.546875 C 94.203125 -85.347656 87.695312 -87.898438 80.59375 -90.203125 C 73.488281 -92.503906 66.382812 -95.15625 59.28125 -98.15625 C 52.175781 -101.164062 45.671875 -104.921875 39.765625 -109.421875 C 33.867188 -113.921875 29.117188 -119.722656 25.515625 -126.828125 C 21.910156 -133.929688 20.109375 -142.890625 20.109375 -153.703125 C 20.109375 -166.503906 23.207031 -177.40625 29.40625 -186.40625 C 35.613281 -195.414062 44.117188 -202.320312 54.921875 -207.125 C 65.734375 -211.925781 77.945312 -214.328125 91.5625 -214.328125 C 105.96875 -214.328125 118.972656 -211.625 130.578125 -206.21875 C 142.191406 -200.820312 151.695312 -193.820312 159.09375 -185.21875 L 132.078125 -158.203125 C 125.878906 -165.003906 119.523438 -170.003906 113.015625 -173.203125 C 106.515625 -176.410156 99.160156 -178.015625 90.953125 -178.015625 C 81.546875 -178.015625 74.140625 -176.210938 68.734375 -172.609375 C 63.335938 -169.003906 60.640625 -163.800781 60.640625 -157 C 60.640625 -151.195312 62.4375 -146.492188 66.03125 -142.890625 C 69.632812 -139.285156 74.390625 -136.179688 80.296875 -133.578125 C 86.203125 -130.984375 92.707031 -128.484375 99.8125 -126.078125 C 106.914062 -123.671875 114.019531 -120.96875 121.125 -117.96875 C 128.226562 -114.96875 134.734375 -111.066406 140.640625 -106.265625 C 146.546875 -101.460938 151.296875 -95.304688 154.890625 -87.796875 C 158.492188 -80.296875 160.296875 -71.039062 160.296875 -60.03125 C 160.296875 -40.425781 153.390625 -25.019531 139.578125 -13.8125 C 125.773438 -2.601562 106.867188 3 82.859375 3 Z M 82.859375 3 "/></g></g></g></svg>